<mxfile host="65bd71144e" modified="2020-12-10T14:03:04.915Z" agent="5.0 (Macintosh; Intel Mac OS X 10_16_0) AppleWebKit/537.36 (KHTML, like Gecko) Code/1.51.1 Chrome/83.0.4103.122 Electron/9.3.3 Safari/537.36" version="13.10.0" etag="a5HTPz7WkTA-oOZvkoBU" type="embed">
    <diagram id="AjfyErdOSF3fO-XFT9AM" name="Page-1">
        <mxGraphModel dx="1710" dy="1240" grid="1" gridSize="10" guides="1" tooltips="1" connect="1" arrows="1" fold="1" page="1" pageScale="1" pageWidth="827" pageHeight="1169" math="0" shadow="0">
            <root>
                <mxCell id="0"/>
                <mxCell id="1" parent="0"/>
                <mxCell id="18" value="" style="group;fillColor=#fff2cc;strokeColor=#d6b656;" vertex="1" connectable="0" parent="1">
                    <mxGeometry x="100" y="600" width="570" height="140" as="geometry"/>
                </mxCell>
                <mxCell id="19" value="Alternative" style="shape=umlFrame;whiteSpace=wrap;html=1;width=70;height=30;fillColor=#fff2cc;strokeColor=#d6b656;" vertex="1" parent="18">
                    <mxGeometry width="570" height="140" as="geometry"/>
                </mxCell>
                <mxCell id="21" value="if" style="text;html=1;align=center;verticalAlign=middle;resizable=0;points=[];autosize=1;fontSize=8;" vertex="1" parent="18">
                    <mxGeometry x="25.00426229508197" y="37.330222222222226" width="20" height="20" as="geometry"/>
                </mxCell>
                <mxCell id="22" value="else" style="text;html=1;align=center;verticalAlign=middle;resizable=0;points=[];autosize=1;fontSize=8;" vertex="1" parent="18">
                    <mxGeometry x="20.00426229508197" y="69.99688888888888" width="30" height="20" as="geometry"/>
                </mxCell>
                <mxCell id="24" value="" style="endArrow=classic;html=1;dashed=1;entryX=1.217;entryY=0.744;entryDx=0;entryDy=0;entryPerimeter=0;" edge="1" parent="18">
                    <mxGeometry width="50" height="50" relative="1" as="geometry">
                        <mxPoint x="550" y="98" as="sourcePoint"/>
                        <mxPoint x="321.16999999999996" y="97.14133333333325" as="targetPoint"/>
                    </mxGeometry>
                </mxCell>
                <mxCell id="25" value="Return rejection email" style="text;html=1;align=center;verticalAlign=middle;resizable=0;points=[];autosize=1;" vertex="1" parent="18">
                    <mxGeometry x="138" y="97.06666666666666" width="130" height="20" as="geometry"/>
                </mxCell>
                <mxCell id="26" value="" style="endArrow=classic;html=1;" edge="1" parent="18">
                    <mxGeometry width="50" height="50" relative="1" as="geometry">
                        <mxPoint x="314" y="116.66666666666667" as="sourcePoint"/>
                        <mxPoint x="78" y="116.66666666666667" as="targetPoint"/>
                    </mxGeometry>
                </mxCell>
                <mxCell id="81" value="Unsuccessful Application" style="text;html=1;align=center;verticalAlign=middle;resizable=0;points=[];autosize=1;" vertex="1" parent="18">
                    <mxGeometry x="366" y="78.39999999999999" width="150" height="20" as="geometry"/>
                </mxCell>
                <mxCell id="83" value="return a rejection email due to&amp;nbsp;&lt;span class=&quot;ILfuVd&quot;&gt;&lt;span class=&quot;hgKElc&quot;&gt;ineligibility&lt;/span&gt;&lt;/span&gt;" style="text;html=1;align=center;verticalAlign=middle;resizable=0;points=[];autosize=1;fontSize=10;" vertex="1" parent="18">
                    <mxGeometry x="340" y="102.66666666666667" width="200" height="20" as="geometry"/>
                </mxCell>
                <mxCell id="57" value="" style="endArrow=classic;html=1;dashed=1;entryX=1.133;entryY=0.592;entryDx=0;entryDy=0;entryPerimeter=0;" edge="1" parent="18">
                    <mxGeometry width="50" height="50" relative="1" as="geometry">
                        <mxPoint x="549.0000000000005" y="28.323333333333302" as="sourcePoint"/>
                        <mxPoint x="319.33000000000004" y="26.829999999999934" as="targetPoint"/>
                    </mxGeometry>
                </mxCell>
                <mxCell id="56" value="Successful Application" style="text;html=1;align=center;verticalAlign=middle;resizable=0;points=[];autosize=1;" vertex="1" parent="18">
                    <mxGeometry x="375" y="5.833333333333334" width="130" height="20" as="geometry"/>
                </mxCell>
                <mxCell id="59" value="" style="endArrow=classic;html=1;" edge="1" parent="18">
                    <mxGeometry width="50" height="50" relative="1" as="geometry">
                        <mxPoint x="314" y="49.83000000000004" as="sourcePoint"/>
                        <mxPoint x="78" y="49.83000000000004" as="targetPoint"/>
                    </mxGeometry>
                </mxCell>
                <mxCell id="58" value="Send acceptance email" style="text;html=1;align=center;verticalAlign=middle;resizable=0;points=[];autosize=1;" vertex="1" parent="18">
                    <mxGeometry x="133" y="25.83000000000004" width="140" height="20" as="geometry"/>
                </mxCell>
                <mxCell id="154" value="" style="endArrow=none;dashed=1;html=1;" edge="1" parent="18">
                    <mxGeometry width="50" height="50" relative="1" as="geometry">
                        <mxPoint y="68.56666666666672" as="sourcePoint"/>
                        <mxPoint x="569" y="68.89999999999998" as="targetPoint"/>
                    </mxGeometry>
                </mxCell>
                <mxCell id="27" value="" style="group;fillColor=#fff2cc;strokeColor=#d6b656;labelBackgroundColor=none;" vertex="1" connectable="0" parent="1">
                    <mxGeometry x="100" y="340" width="570" height="130" as="geometry"/>
                </mxCell>
                <mxCell id="28" value="Alternative" style="shape=umlFrame;whiteSpace=wrap;html=1;width=70;height=30;" vertex="1" parent="27">
                    <mxGeometry width="570" height="130" as="geometry"/>
                </mxCell>
                <mxCell id="29" value="" style="endArrow=none;dashed=1;html=1;" edge="1" parent="27">
                    <mxGeometry width="50" height="50" relative="1" as="geometry">
                        <mxPoint y="60.666666666666664" as="sourcePoint"/>
                        <mxPoint x="569" y="61" as="targetPoint"/>
                    </mxGeometry>
                </mxCell>
                <mxCell id="30" value="if" style="text;html=1;align=center;verticalAlign=middle;resizable=0;points=[];autosize=1;fontSize=8;" vertex="1" parent="27">
                    <mxGeometry x="24.34426229508197" y="34.66666666666667" width="20" height="20" as="geometry"/>
                </mxCell>
                <mxCell id="31" value="else" style="text;html=1;align=center;verticalAlign=middle;resizable=0;points=[];autosize=1;fontSize=8;" vertex="1" parent="27">
                    <mxGeometry x="18.688524590163937" y="78" width="30" height="20" as="geometry"/>
                </mxCell>
                <mxCell id="32" value="Error message (sign up error)" style="text;html=1;align=center;verticalAlign=middle;resizable=0;points=[];autosize=1;" vertex="1" parent="27">
                    <mxGeometry x="90.1639344262295" y="86.66666666666667" width="170" height="20" as="geometry"/>
                </mxCell>
                <mxCell id="33" value="" style="endArrow=classic;html=1;" edge="1" parent="27">
                    <mxGeometry width="50" height="50" relative="1" as="geometry">
                        <mxPoint x="310" y="104" as="sourcePoint"/>
                        <mxPoint x="80" y="104" as="targetPoint"/>
                    </mxGeometry>
                </mxCell>
                <mxCell id="34" value="Unsuccessful Registration" style="text;html=1;align=center;verticalAlign=middle;resizable=0;points=[];autosize=1;" vertex="1" parent="27">
                    <mxGeometry x="350.0006557377049" y="66.66666666666669" width="150" height="20" as="geometry"/>
                </mxCell>
                <mxCell id="35" value="" style="endArrow=classic;html=1;dashed=1;" edge="1" parent="27">
                    <mxGeometry width="50" height="50" relative="1" as="geometry">
                        <mxPoint x="546" y="86.66666666666667" as="sourcePoint"/>
                        <mxPoint x="320" y="86.66666666666667" as="targetPoint"/>
                    </mxGeometry>
                </mxCell>
                <mxCell id="36" value="&lt;span style=&quot;font-weight: 700&quot;&gt;Beneficiaries&lt;/span&gt;&amp;nbsp;Actor&amp;nbsp;" style="shape=umlActor;verticalLabelPosition=bottom;verticalAlign=top;html=1;outlineConnect=0;" vertex="1" parent="1">
                    <mxGeometry x="160" y="190" width="30" height="60" as="geometry"/>
                </mxCell>
                <mxCell id="38" value="PLATFORM (BACK END)" style="rounded=0;whiteSpace=wrap;html=1;" vertex="1" parent="1">
                    <mxGeometry x="590" y="190" width="120" height="60" as="geometry"/>
                </mxCell>
                <mxCell id="39" value="PLATFORM (USER END)" style="rounded=0;whiteSpace=wrap;html=1;" vertex="1" parent="1">
                    <mxGeometry x="354" y="190" width="120" height="60" as="geometry"/>
                </mxCell>
                <mxCell id="41" value="" style="endArrow=none;dashed=1;html=1;" edge="1" parent="1">
                    <mxGeometry width="50" height="50" relative="1" as="geometry">
                        <mxPoint x="414.00000000000057" y="250" as="sourcePoint"/>
                        <mxPoint x="414.00000000000045" y="250" as="targetPoint"/>
                    </mxGeometry>
                </mxCell>
                <mxCell id="43" value="" style="endArrow=none;dashed=1;html=1;" edge="1" parent="1">
                    <mxGeometry width="50" height="50" relative="1" as="geometry">
                        <mxPoint x="649.4100000000003" y="250" as="sourcePoint"/>
                        <mxPoint x="649.4100000000003" y="250" as="targetPoint"/>
                    </mxGeometry>
                </mxCell>
                <mxCell id="44" value="" style="endArrow=classic;html=1;" edge="1" parent="1">
                    <mxGeometry width="50" height="50" relative="1" as="geometry">
                        <mxPoint x="178" y="303" as="sourcePoint"/>
                        <mxPoint x="413" y="303" as="targetPoint"/>
                    </mxGeometry>
                </mxCell>
                <mxCell id="45" value="" style="endArrow=classic;html=1;" edge="1" parent="1">
                    <mxGeometry width="50" height="50" relative="1" as="geometry">
                        <mxPoint x="413" y="330" as="sourcePoint"/>
                        <mxPoint x="648" y="330" as="targetPoint"/>
                    </mxGeometry>
                </mxCell>
                <mxCell id="46" value="Account Creation" style="text;html=1;align=center;verticalAlign=middle;resizable=0;points=[];autosize=1;" vertex="1" parent="1">
                    <mxGeometry x="245" y="280" width="110" height="20" as="geometry"/>
                </mxCell>
                <mxCell id="47" value="Creates an account&amp;nbsp;" style="text;html=1;align=center;verticalAlign=middle;resizable=0;points=[];autosize=1;" vertex="1" parent="1">
                    <mxGeometry x="475" y="310" width="120" height="20" as="geometry"/>
                </mxCell>
                <mxCell id="48" value="" style="endArrow=classic;html=1;dashed=1;" edge="1" parent="1">
                    <mxGeometry width="50" height="50" relative="1" as="geometry">
                        <mxPoint x="646.9999999999995" y="360" as="sourcePoint"/>
                        <mxPoint x="420" y="360" as="targetPoint"/>
                    </mxGeometry>
                </mxCell>
                <mxCell id="49" value="Successful" style="text;html=1;align=center;verticalAlign=middle;resizable=0;points=[];autosize=1;" vertex="1" parent="1">
                    <mxGeometry x="498" y="340" width="70" height="20" as="geometry"/>
                </mxCell>
                <mxCell id="50" value="" style="endArrow=classic;html=1;" edge="1" parent="1">
                    <mxGeometry width="50" height="50" relative="1" as="geometry">
                        <mxPoint x="410" y="380" as="sourcePoint"/>
                        <mxPoint x="180" y="380" as="targetPoint"/>
                    </mxGeometry>
                </mxCell>
                <mxCell id="51" value="Registration successful (sign in)" style="text;html=1;align=center;verticalAlign=middle;resizable=0;points=[];autosize=1;" vertex="1" parent="1">
                    <mxGeometry x="195" y="360" width="180" height="20" as="geometry"/>
                </mxCell>
                <mxCell id="55" value="" style="endArrow=classic;html=1;entryX=0.129;entryY=0.538;entryDx=0;entryDy=0;entryPerimeter=0;" edge="1" parent="1">
                    <mxGeometry width="50" height="50" relative="1" as="geometry">
                        <mxPoint x="414" y="585" as="sourcePoint"/>
                        <mxPoint x="646.29" y="585.6599999999999" as="targetPoint"/>
                    </mxGeometry>
                </mxCell>
                <mxCell id="76" value="UMBRELLA PROCESS FLOW DIAGRAM" style="text;html=1;align=center;verticalAlign=middle;resizable=0;points=[];autosize=1;fontSize=32;" vertex="1" parent="1">
                    <mxGeometry x="109" y="50" width="610" height="40" as="geometry"/>
                </mxCell>
                <mxCell id="78" value="" style="endArrow=classic;html=1;" edge="1" parent="1">
                    <mxGeometry width="50" height="50" relative="1" as="geometry">
                        <mxPoint x="174" y="570" as="sourcePoint"/>
                        <mxPoint x="409" y="570" as="targetPoint"/>
                    </mxGeometry>
                </mxCell>
                <mxCell id="79" value="&lt;br style=&quot;font-size: 9px&quot;&gt;&lt;span style=&quot;color: rgb(29 , 28 , 29) ; font-size: 9px ; text-align: left ; background-color: rgb(248 , 248 , 248)&quot;&gt;Application&lt;br style=&quot;font-size: 9px&quot;&gt;Testing for qualifications, &lt;br style=&quot;font-size: 9px&quot;&gt;ability, skill, interview scheduling.&lt;br&gt;&lt;br&gt;Check Technical Competency&lt;br&gt;Check Logical Competency&lt;br&gt;&lt;/span&gt;" style="text;html=1;align=center;verticalAlign=middle;resizable=0;points=[];autosize=1;fontSize=9;" vertex="1" parent="1">
                    <mxGeometry x="225" y="487" width="150" height="80" as="geometry"/>
                </mxCell>
                <mxCell id="80" value="&lt;b style=&quot;color: rgb(29, 28, 29); font-size: 10px; text-align: left; box-sizing: inherit;&quot;&gt;1. training programmes&lt;br style=&quot;font-size: 10px;&quot;&gt;&lt;/b&gt;&lt;span style=&quot;color: rgb(29, 28, 29); font-size: 10px; text-align: left; background-color: rgb(248, 248, 248);&quot;&gt;2.&amp;nbsp;&lt;/span&gt;&lt;b style=&quot;color: rgb(29, 28, 29); font-size: 10px; text-align: left; box-sizing: inherit;&quot;&gt;internship programme&lt;br style=&quot;font-size: 10px;&quot;&gt;&lt;/b&gt;&lt;span style=&quot;color: rgb(29, 28, 29); font-size: 10px; text-align: left; background-color: rgb(248, 248, 248);&quot;&gt;3.&amp;nbsp;&lt;/span&gt;&lt;b style=&quot;color: rgb(29, 28, 29); font-size: 10px; text-align: left; box-sizing: inherit;&quot;&gt;entrepreneurship programme&lt;br style=&quot;font-size: 10px;&quot;&gt;&lt;/b&gt;" style="text;html=1;align=center;verticalAlign=middle;resizable=0;points=[];autosize=1;fontSize=10;" vertex="1" parent="1">
                    <mxGeometry x="440" y="540" width="170" height="40" as="geometry"/>
                </mxCell>
                <mxCell id="113" value="Send training contents to front end" style="text;html=1;align=center;verticalAlign=middle;resizable=0;points=[];autosize=1;" vertex="1" parent="1">
                    <mxGeometry x="440.57" y="860" width="200" height="20" as="geometry"/>
                </mxCell>
                <mxCell id="114" value="" style="endArrow=classic;html=1;entryX=0.986;entryY=0.911;entryDx=0;entryDy=0;entryPerimeter=0;" edge="1" parent="1">
                    <mxGeometry width="50" height="50" relative="1" as="geometry">
                        <mxPoint x="651.5699999999999" y="881" as="sourcePoint"/>
                        <mxPoint x="418.4300000000001" y="880.8000000000002" as="targetPoint"/>
                    </mxGeometry>
                </mxCell>
                <mxCell id="148" value="" style="endArrow=classic;html=1;" edge="1" parent="1">
                    <mxGeometry width="50" height="50" relative="1" as="geometry">
                        <mxPoint x="174" y="806" as="sourcePoint"/>
                        <mxPoint x="409" y="806" as="targetPoint"/>
                    </mxGeometry>
                </mxCell>
                <mxCell id="149" value="" style="endArrow=classic;html=1;entryX=0.129;entryY=0.538;entryDx=0;entryDy=0;entryPerimeter=0;" edge="1" parent="1">
                    <mxGeometry width="50" height="50" relative="1" as="geometry">
                        <mxPoint x="412.71" y="824" as="sourcePoint"/>
                        <mxPoint x="645" y="824.6599999999999" as="targetPoint"/>
                    </mxGeometry>
                </mxCell>
                <mxCell id="151" value="Apply for the training" style="text;html=1;align=center;verticalAlign=middle;resizable=0;points=[];autosize=1;fontSize=13;" vertex="1" parent="1">
                    <mxGeometry x="219.99999999999997" y="781" width="130" height="20" as="geometry"/>
                </mxCell>
                <mxCell id="153" value="" style="endArrow=none;dashed=1;html=1;" edge="1" parent="1">
                    <mxGeometry width="50" height="50" relative="1" as="geometry">
                        <mxPoint x="174" y="1050" as="sourcePoint"/>
                        <mxPoint x="174.4099999999994" y="280" as="targetPoint"/>
                    </mxGeometry>
                </mxCell>
                <mxCell id="156" value="Take the Training" style="text;html=1;align=center;verticalAlign=middle;resizable=0;points=[];autosize=1;fontSize=13;" vertex="1" parent="1">
                    <mxGeometry x="474" y="800" width="110" height="20" as="geometry"/>
                </mxCell>
                <mxCell id="157" value="View content on front-end&lt;br&gt;(Video/PDF)&lt;br&gt;" style="text;html=1;align=center;verticalAlign=middle;resizable=0;points=[];autosize=1;" vertex="1" parent="1">
                    <mxGeometry x="225" y="885" width="150" height="30" as="geometry"/>
                </mxCell>
                <mxCell id="158" value="" style="endArrow=classic;html=1;entryX=0.986;entryY=0.911;entryDx=0;entryDy=0;entryPerimeter=0;" edge="1" parent="1">
                    <mxGeometry width="50" height="50" relative="1" as="geometry">
                        <mxPoint x="408.99999999999994" y="921" as="sourcePoint"/>
                        <mxPoint x="175.86000000000007" y="920.8000000000002" as="targetPoint"/>
                    </mxGeometry>
                </mxCell>
                <mxCell id="161" value="" style="endArrow=classic;html=1;entryX=0.986;entryY=0.911;entryDx=0;entryDy=0;entryPerimeter=0;" edge="1" parent="1">
                    <mxGeometry width="50" height="50" relative="1" as="geometry">
                        <mxPoint x="649.5699999999999" y="976" as="sourcePoint"/>
                        <mxPoint x="416.4300000000001" y="975.8000000000002" as="targetPoint"/>
                    </mxGeometry>
                </mxCell>
                <mxCell id="162" value="On training completion &lt;br&gt;(Issue Certificate to the beneficiaries)" style="text;html=1;align=center;verticalAlign=middle;resizable=0;points=[];autosize=1;fontStyle=1" vertex="1" parent="1">
                    <mxGeometry x="420" y="940" width="230" height="30" as="geometry"/>
                </mxCell>
                <mxCell id="163" value="" style="html=1;points=[];perimeter=orthogonalPerimeter;fontSize=8;fillColor=#dae8fc;strokeColor=#6c8ebf;" vertex="1" parent="1">
                    <mxGeometry x="645" y="250" width="10" height="800" as="geometry"/>
                </mxCell>
                <mxCell id="164" value="" style="html=1;points=[];perimeter=orthogonalPerimeter;fontSize=8;fillColor=#dae8fc;strokeColor=#6c8ebf;" vertex="1" parent="1">
                    <mxGeometry x="409" y="250" width="10" height="800" as="geometry"/>
                </mxCell>
                <mxCell id="165" value="beneficiary actor" style="text;html=1;align=center;verticalAlign=middle;resizable=0;points=[];autosize=1;fontSize=32;" vertex="1" parent="1">
                    <mxGeometry x="280" y="100" width="250" height="40" as="geometry"/>
                </mxCell>
            </root>
        </mxGraphModel>
    </diagram>
</mxfile>